<svg viewBox="0 0 72 72" fill="none" xmlns="http://www.w3.org/2000/svg">
<g clip-path="url(#clip0)">
<rect width="72" height="72" fill="#FDDF91"/>
<path d="M40.448 47C39.04 48.344 37.12 49.624 36.608 49.624C36.032 49.624 35.968 48.92 36.352 47.32C37.248 43.48 38.144 39.576 39.04 35.864C41.024 27.224 38.912 26.008 36.8 26.008C35.2 26.008 33.28 26.776 31.488 28.056C28.672 29.976 25.216 33.112 22.208 37.272H22.08L22.784 34.072C24.192 27.928 23.36 26.008 21.504 26.008C19.072 26.008 15.04 28.248 10.624 32.6L11.52 34.52C12.8 33.24 15.04 31.896 15.616 31.896C16 31.896 16.064 32.472 15.616 34.392C14.08 41.816 12.416 48.664 10.816 55.128L11.328 55.704C13.248 55.128 16.192 54.552 18.624 54.36C19.392 50.2 20.416 45.72 21.312 42.264C23.488 38.296 29.376 31.704 31.424 31.704C32.064 31.768 32.512 32.408 31.744 35.672C30.656 40.088 29.696 44.504 28.608 48.92C27.328 54.488 28.672 55.768 30.464 55.768C32.832 55.768 36.672 53.976 41.472 48.92L40.448 47ZM62.453 15.32C62.709 13.912 61.877 12.504 57.845 12.504H57.781C53.557 12.504 52.469 13.464 52.213 15C52.085 15.96 51.957 17.24 51.893 20.12C51.637 27.032 51.253 34.008 51.061 40.984C51.125 41.752 53.493 41.752 53.877 40.984C56.309 34.008 58.613 27.032 60.981 20.056C61.877 17.496 62.261 16.28 62.453 15.32ZM55.477 50.392C55.477 47.448 53.621 45.464 50.997 45.464C47.925 45.464 45.749 47.832 45.749 51.032C45.749 53.72 47.605 55.768 50.165 55.768H50.229C52.853 55.768 55.477 53.72 55.477 50.392Z" fill="#363636"/>
</g>
<defs>
<clipPath id="clip0">
<rect width="72" height="72" fill="white"/>
</clipPath>
</defs>
</svg>
