<svg viewBox="0 0 383 80" fill="none" xmlns="http://www.w3.org/2000/svg">
<path d="M149.266 55.8516L159.391 52.4062C160.609 54.6562 162.461 56.5312 164.945 58.0312C167.477 59.5312 170.102 60.2812 172.82 60.2812C175.492 60.2812 177.625 59.6484 179.219 58.3828C180.859 57.0703 181.68 55.4297 181.68 53.4609C181.68 51.2109 180.766 49.4297 178.938 48.1172C177.109 46.7578 174.414 45.4688 170.852 44.25C165.32 42.4219 161.617 41.0156 159.742 40.0312C154.164 36.9844 151.375 32.4844 151.375 26.5312C151.375 21.6562 153.32 17.7187 157.211 14.7188C161.102 11.6719 166.094 10.1484 172.188 10.1484C177.438 10.1484 181.867 11.3906 185.477 13.875C189.133 16.3125 191.828 19.4766 193.562 23.3672L183.719 26.6016C180.625 22.3359 176.758 20.2031 172.117 20.2031C169.445 20.2031 167.336 20.7891 165.789 21.9609C164.242 23.0859 163.469 24.5859 163.469 26.4609C163.469 27.2578 163.586 27.9844 163.82 28.6406C164.055 29.2969 164.5 29.9062 165.156 30.4688C165.859 31.0312 166.445 31.5 166.914 31.875C167.43 32.25 168.273 32.6719 169.445 33.1406C170.664 33.6094 171.555 33.9609 172.117 34.1953C172.727 34.3828 173.805 34.7109 175.352 35.1797C176.945 35.6484 178 35.9766 178.516 36.1641C180.625 36.8672 182.5 37.6406 184.141 38.4844C185.828 39.3281 187.445 40.4062 188.992 41.7188C190.539 42.9844 191.734 44.5781 192.578 46.5C193.422 48.4219 193.844 50.5781 193.844 52.9688C193.844 58.4531 191.805 62.7188 187.727 65.7656C183.695 68.7656 178.633 70.2656 172.539 70.2656C167.242 70.2656 162.508 68.9766 158.336 66.3984C154.164 63.8203 151.141 60.3047 149.266 55.8516ZM201.156 69V11.4141H212.828V59.0156H238.141V69H201.156ZM259.516 46.7109H274L270.344 34.5469C268.891 29.6719 267.766 25.7578 266.969 22.8047H266.547C265.469 26.8828 264.367 30.7969 263.242 34.5469L259.516 46.7109ZM240.25 69L260.57 11.4141H273.016L293.336 69H281.031L276.953 56.1328H256.633L252.555 69H240.25ZM291.086 21.4688V11.4141H334.82V21.4688H318.789V69H307.188V21.4688H291.086ZM341.078 69V11.4141H379.961V21.4688H352.75V34.3359H377.219V44.1797H352.75V59.0156H380.734V69H341.078Z" fill="black"/>
<rect y="40" width="80" height="40" fill="black"/>
<rect x="34" width="80" height="40" fill="black"/>
</svg>
